<?xml version="1.0" standalone="no"?>
<svg viewBox="0 0 1024 1024" xmlns="http://www.w3.org/2000/svg">
  <path d="M512 64C264.6 64 64 264.6 64 512s200.6 448 448 448 448-200.6 448-448S759.4 64 512 64zm0 820c-205.4 0-372-166.6-372-372s166.6-372 372-372 372 166.6 372 372-166.6 372-372 372z" />
  <path d="M668.6 508.6l-160-160c-12.5-12.5-32.8-12.5-45.3 0l-160 160c-12.5 12.5-12.5 32.8 0 45.3s32.8 12.5 45.3 0L448 454.3V672c0 17.7 14.3 32 32 32s32-14.3 32-32V454.3l99.4 99.4c12.5 12.5 32.8 12.5 45.3 0s12.4-32.8-.1-45.1z" />
</svg> 