<?xml version="1.0" standalone="no"?>
<svg viewBox="0 0 1024 1024" xmlns="http://www.w3.org/2000/svg">
  <path d="M512 64C264.6 64 64 264.6 64 512s200.6 448 448 448 448-200.6 448-448S759.4 64 512 64zm0 820c-205.4 0-372-166.6-372-372s166.6-372 372-372 372 166.6 372 372-166.6 372-372 372z" />
  <path d="M512 336c-97.2 0-176 78.8-176 176s78.8 176 176 176 176-78.8 176-176-78.8-176-176-176zm79.2 255.2C570 612.3 541.9 624 512 624s-58-11.7-79.2-32.8C411.7 570 400 541.9 400 512s11.7-58 32.8-79.2C454 411.7 482.1 400 512 400s58 11.7 79.2 32.8C612.3 454 624 482.1 624 512s-11.7 58-32.8 79.2z" />
</svg> 