<?xml version="1.0" standalone="no"?>
<svg viewBox="0 0 1024 1024" xmlns="http://www.w3.org/2000/svg">
  <path d="M512 64C264.6 64 64 264.6 64 512s200.6 448 448 448 448-200.6 448-448S759.4 64 512 64zm0 820c-205.4 0-372-166.6-372-372s166.6-372 372-372 372 166.6 372 372-166.6 372-372 372z" />
  <path d="M759.2 484.8L512 732l-247.2-247.2c-12.5-12.5-32.8-12.5-45.3 0s-12.5 32.8 0 45.3l270 270c12.5 12.5 32.8 12.5 45.3 0l270-270c12.5-12.5 12.5-32.8 0-45.3s-32.8-12.5-45.3 0z" />
  <path d="M759.2 284.8L512 532l-247.2-247.2c-12.5-12.5-32.8-12.5-45.3 0s-12.5 32.8 0 45.3l270 270c12.5 12.5 32.8 12.5 45.3 0l270-270c12.5-12.5 12.5-32.8 0-45.3s-32.8-12.5-45.3 0z" />
</svg> 