<?xml version="1.0" encoding="UTF-8"?>
<svg width="128px" height="128px" viewBox="0 0 128 128" version="1.1" xmlns="http://www.w3.org/2000/svg">
    <g stroke="none" stroke-width="1" fill="none" fill-rule="evenodd">
        <path d="M64,8 L112,32 L112,56 C112,84.7188 91.4688,110.719 64,120 C36.5312,110.719 16,84.7188 16,56 L16,32 L64,8 Z" fill="#1890FF"/>
        <path d="M64,16 L104,36 L104,56 C104,80.7188 86.4688,103.719 64,112 C41.5312,103.719 24,80.7188 24,56 L24,36 L64,16 Z" fill="#FFFFFF"/>
        <path d="M64,24 L96,40 L96,56 C96,76.7188 81.4688,96.719 64,104 C46.5312,96.719 32,76.7188 32,56 L32,40 L64,24 Z" fill="#1890FF"/>
    </g>
</svg> 